# xmcd
#
# Track frame offsets: 
#        150
#        17007
#        33600
#        51307
#        65442
#        84822
#        107760
#        124360
#        142447
#        161032
#
# Disc length: 2369 seconds
#
# Revision: 2
# Processed by: cddbd v1.5.2PL0 Copyright (c) Steve Scherf et al.
# Submitted via: ExactAudioCopy v0.95b3
#
DISCID=8f093f0a
DTITLE=Stormwitch - Eye Of The Storm
DYEAR=1989
DGENRE=Hard Rock
TTITLE0=Eye Of The Storm
TTITLE1=Tarred And Feathered
TTITLE2=Heart Of Ice
TTITLE3=Rondo A La Turca
TTITLE4=I Want You Around
TTITLE5=King In The Ring
TTITLE6=Paradise
TTITLE7=Take Me Home
TTITLE8=Steel In The Red Light
TTITLE9=Another World Apart
EXTD=
EXTT0=
EXTT1=
EXTT2=
EXTT3=
EXTT4=
EXTT5=
EXTT6=
EXTT7=
EXTT8=
EXTT9=
PLAYORDER=
